<svg xmlns="http://www.w3.org/2000/svg" xmlns:xlink="http://www.w3.org/1999/xlink" width="1080" zoomAndPan="magnify" viewBox="0 0 810 809.999993" height="1080" preserveAspectRatio="xMidYMid meet" version="1.0"><defs><g/><clipPath id="1506fd91bf"><path d="M 372.300781 489.589844 L 414.125 489.589844 L 414.125 531.414062 L 372.300781 531.414062 Z M 372.300781 489.589844 " clip-rule="nonzero"/></clipPath><clipPath id="9ddfc51199"><path d="M 393.214844 489.589844 C 381.664062 489.589844 372.300781 498.953125 372.300781 510.503906 C 372.300781 522.054688 381.664062 531.414062 393.214844 531.414062 C 404.765625 531.414062 414.125 522.054688 414.125 510.503906 C 414.125 498.953125 404.765625 489.589844 393.214844 489.589844 Z M 393.214844 489.589844 " clip-rule="nonzero"/></clipPath><clipPath id="24c5c2ee8c"><path d="M 314.75 184.652344 L 356.574219 184.652344 L 356.574219 226.476562 L 314.75 226.476562 Z M 314.75 184.652344 " clip-rule="nonzero"/></clipPath><clipPath id="395e7220ba"><path d="M 335.664062 184.652344 C 324.113281 184.652344 314.75 194.015625 314.75 205.566406 C 314.75 217.117188 324.113281 226.476562 335.664062 226.476562 C 347.210938 226.476562 356.574219 217.117188 356.574219 205.566406 C 356.574219 194.015625 347.210938 184.652344 335.664062 184.652344 Z M 335.664062 184.652344 " clip-rule="nonzero"/></clipPath></defs><rect x="-81" width="972" fill="#ffffff" y="-80.999999" height="971.999992" fill-opacity="1"/><rect x="-81" width="972" fill="#ffffff" y="-80.999999" height="971.999992" fill-opacity="1"/><g clip-path="url(#1506fd91bf)"><g clip-path="url(#9ddfc51199)"><path stroke-linecap="butt" transform="matrix(0.75, 0, 0, 0.75, 372.302212, 489.591331)" fill="none" stroke-linejoin="miter" d="M 27.88351 -0.00198349 C 12.482468 -0.00198349 -0.00190763 12.482392 -0.00190763 27.883435 C -0.00190763 43.284477 12.482468 55.763644 27.88351 55.763644 C 43.284553 55.763644 55.76372 43.284477 55.76372 27.883435 C 55.76372 12.482392 43.284553 -0.00198349 27.88351 -0.00198349 Z M 27.88351 -0.00198349 " stroke="#efa81f" stroke-width="40" stroke-opacity="1" stroke-miterlimit="4"/></g></g><g clip-path="url(#24c5c2ee8c)"><g clip-path="url(#395e7220ba)"><path stroke-linecap="butt" transform="matrix(0.75, 0, 0, 0.75, 314.750496, 184.65417)" fill="none" stroke-linejoin="miter" d="M 27.884757 -0.00243488 C 12.483715 -0.00243488 -0.000660887 12.481941 -0.000660887 27.882983 C -0.000660887 43.284026 12.483715 55.763193 27.884757 55.763193 C 43.280591 55.763193 55.764967 43.284026 55.764967 27.882983 C 55.764967 12.481941 43.280591 -0.00243488 27.884757 -0.00243488 Z M 27.884757 -0.00243488 " stroke="#efa81f" stroke-width="40" stroke-opacity="1" stroke-miterlimit="4"/></g></g><g fill="#ef1f9f" fill-opacity="1"><g transform="translate(103.438028, 354.750002)"><g><path d="M 66.765625 2.859375 C 53.617188 2.859375 43.492188 -0.710938 36.390625 -7.859375 C 29.296875 -15.015625 25.75 -25.851562 25.75 -40.375 L 25.75 -141.796875 L 3.96875 -141.796875 L 3.96875 -172 L 27.984375 -172 L 41.96875 -212.375 L 69.9375 -212.375 L 69.9375 -172 L 102.53125 -172 L 102.53125 -141.796875 L 69.9375 -141.796875 L 69.9375 -52.453125 C 69.9375 -44.085938 71.523438 -37.914062 74.703125 -33.9375 C 77.890625 -29.96875 82.820312 -27.984375 89.5 -27.984375 C 93 -27.984375 97.976562 -28.722656 104.4375 -30.203125 L 104.4375 -2.546875 C 93.414062 1.054688 80.859375 2.859375 66.765625 2.859375 Z M 66.765625 2.859375 "/></g></g></g><g fill="#ef1f9f" fill-opacity="1"><g transform="translate(172.46006, 354.750002)"><g><path d="M 93.15625 3.171875 C 67.289062 3.171875 47.414062 -4.484375 33.53125 -19.796875 C 19.65625 -35.109375 12.71875 -57.441406 12.71875 -86.796875 C 12.71875 -115.191406 19.765625 -137.019531 33.859375 -152.28125 C 47.953125 -167.550781 67.929688 -175.1875 93.796875 -175.1875 C 118.484375 -175.1875 137.34375 -167 150.375 -150.625 C 163.414062 -134.25 169.9375 -110.269531 169.9375 -78.6875 L 169.9375 -77.421875 L 59.609375 -77.421875 C 59.609375 -60.671875 62.707031 -48.03125 68.90625 -39.5 C 75.113281 -30.96875 83.9375 -26.703125 95.375 -26.703125 C 111.164062 -26.703125 121.128906 -33.539062 125.265625 -47.21875 L 167.390625 -43.5625 C 155.203125 -12.40625 130.457031 3.171875 93.15625 3.171875 Z M 93.15625 -147.046875 C 82.664062 -147.046875 74.582031 -143.390625 68.90625 -136.078125 C 63.238281 -128.765625 60.25 -118.535156 59.9375 -105.390625 L 126.703125 -105.390625 C 125.847656 -119.273438 122.503906 -129.6875 116.671875 -136.625 C 110.847656 -143.570312 103.007812 -147.046875 93.15625 -147.046875 Z M 93.15625 -147.046875 "/></g></g></g><g fill="#ef1f9f" fill-opacity="1"><g transform="translate(314.130703, 354.750002)"><g><path d="M 94.421875 3.171875 C 68.347656 3.171875 48.210938 -4.585938 34.015625 -20.109375 C 19.816406 -35.628906 12.71875 -57.273438 12.71875 -85.046875 C 12.71875 -113.453125 19.867188 -135.578125 34.171875 -151.421875 C 48.484375 -167.265625 68.78125 -175.1875 95.0625 -175.1875 C 115.300781 -175.1875 132.046875 -170.097656 145.296875 -159.921875 C 158.546875 -149.742188 166.863281 -135.703125 170.25 -117.796875 L 125.265625 -115.5625 C 123.992188 -124.363281 120.8125 -131.382812 115.71875 -136.625 C 110.632812 -141.875 103.429688 -144.5 94.109375 -144.5 C 71.109375 -144.5 59.609375 -125.265625 59.609375 -86.796875 C 59.609375 -47.160156 71.320312 -27.34375 94.75 -27.34375 C 103.226562 -27.34375 110.328125 -30.015625 116.046875 -35.359375 C 121.765625 -40.710938 125.316406 -48.691406 126.703125 -59.296875 L 171.53125 -57.234375 C 169.9375 -45.460938 165.722656 -34.96875 158.890625 -25.75 C 152.054688 -16.53125 143.070312 -9.40625 131.9375 -4.375 C 120.8125 0.65625 108.304688 3.171875 94.421875 3.171875 Z M 94.421875 3.171875 "/></g></g></g><g fill="#ef1f9f" fill-opacity="1"><g transform="translate(455.801346, 354.750002)"><g><path d="M 66.765625 -137.671875 C 72.804688 -150.804688 80.382812 -160.34375 89.5 -166.28125 C 98.613281 -172.21875 109.476562 -175.1875 122.09375 -175.1875 C 140.3125 -175.1875 154.296875 -169.566406 164.046875 -158.328125 C 173.796875 -147.097656 178.671875 -130.671875 178.671875 -109.046875 L 178.671875 0 L 134.171875 0 L 134.171875 -96.328125 C 134.171875 -126.535156 123.941406 -141.640625 103.484375 -141.640625 C 92.671875 -141.640625 83.953125 -137 77.328125 -127.71875 C 70.710938 -118.445312 67.40625 -106.554688 67.40625 -92.046875 L 67.40625 0 L 22.734375 0 L 22.734375 -235.90625 L 67.40625 -235.90625 L 67.40625 -171.53125 C 67.40625 -159.976562 66.976562 -148.691406 66.125 -137.671875 Z M 66.765625 -137.671875 "/></g></g></g><g fill="#ef1f9f" fill-opacity="1"><g transform="translate(615.27785, 354.750002)"><g/></g></g><g fill="#ef1f9f" fill-opacity="1"><g transform="translate(103.438028, 680.249986)"><g><path d="M 185.515625 -86.640625 C 185.515625 -58.234375 179.816406 -36.160156 168.421875 -20.421875 C 157.023438 -4.691406 140.734375 3.171875 119.546875 3.171875 C 107.359375 3.171875 96.8125 0.523438 87.90625 -4.765625 C 79.007812 -10.066406 72.175781 -17.695312 67.40625 -27.65625 L 67.078125 -27.65625 C 67.078125 -23.945312 66.835938 -18.859375 66.359375 -12.390625 C 65.890625 -5.929688 65.390625 -1.800781 64.859375 0 L 21.453125 0 C 22.304688 -9.851562 22.734375 -22.941406 22.734375 -39.265625 L 22.734375 -235.90625 L 67.40625 -235.90625 L 67.40625 -170.09375 L 66.765625 -142.109375 L 67.40625 -142.109375 C 77.46875 -164.160156 95.800781 -175.1875 122.40625 -175.1875 C 142.75 -175.1875 158.351562 -167.472656 169.21875 -152.046875 C 180.082031 -136.628906 185.515625 -114.828125 185.515625 -86.640625 Z M 138.9375 -86.640625 C 138.9375 -106.140625 136.070312 -120.601562 130.34375 -130.03125 C 124.625 -139.46875 115.78125 -144.1875 103.8125 -144.1875 C 91.726562 -144.1875 82.53125 -139.125 76.21875 -129 C 69.914062 -118.875 66.765625 -104.273438 66.765625 -85.203125 C 66.765625 -66.972656 69.863281 -52.769531 76.0625 -42.59375 C 82.257812 -32.425781 91.398438 -27.34375 103.484375 -27.34375 C 127.117188 -27.34375 138.9375 -47.109375 138.9375 -86.640625 Z M 138.9375 -86.640625 "/></g></g></g><g fill="#ef1f9f" fill-opacity="1"><g transform="translate(262.91313, 680.249986)"><g><path d="M 22.734375 0 L 22.734375 -131.625 C 22.734375 -141.050781 22.597656 -148.914062 22.328125 -155.21875 C 22.066406 -161.53125 21.773438 -167.125 21.453125 -172 L 64.0625 -172 C 64.382812 -170.09375 64.804688 -164.289062 65.328125 -154.59375 C 65.859375 -144.894531 66.125 -138.457031 66.125 -135.28125 L 66.765625 -135.28125 C 71.109375 -147.363281 74.972656 -155.867188 78.359375 -160.796875 C 81.753906 -165.722656 85.785156 -169.378906 90.453125 -171.765625 C 95.117188 -174.148438 100.945312 -175.34375 107.9375 -175.34375 C 113.65625 -175.34375 118.265625 -174.546875 121.765625 -172.953125 L 121.765625 -135.59375 C 114.554688 -137.1875 108.195312 -137.984375 102.6875 -137.984375 C 91.5625 -137.984375 82.898438 -133.476562 76.703125 -124.46875 C 70.503906 -115.457031 67.40625 -102.101562 67.40625 -84.40625 L 67.40625 0 Z M 22.734375 0 "/></g></g></g><g fill="#ef1f9f" fill-opacity="1"><g transform="translate(350.216531, 680.249986)"><g><path d="M 186.15625 -86.15625 C 186.15625 -58.28125 178.414062 -36.421875 162.9375 -20.578125 C 147.46875 -4.742188 126.0625 3.171875 98.71875 3.171875 C 71.90625 3.171875 50.867188 -4.773438 35.609375 -20.671875 C 20.347656 -36.566406 12.71875 -58.394531 12.71875 -86.15625 C 12.71875 -113.820312 20.347656 -135.578125 35.609375 -151.421875 C 50.867188 -167.265625 72.222656 -175.1875 99.671875 -175.1875 C 127.753906 -175.1875 149.1875 -167.523438 163.96875 -152.203125 C 178.757812 -136.890625 186.15625 -114.875 186.15625 -86.15625 Z M 139.40625 -86.15625 C 139.40625 -106.613281 136.066406 -121.453125 129.390625 -130.671875 C 122.722656 -139.890625 113.03125 -144.5 100.3125 -144.5 C 73.175781 -144.5 59.609375 -125.050781 59.609375 -86.15625 C 59.609375 -66.976562 62.921875 -52.378906 69.546875 -42.359375 C 76.171875 -32.347656 85.734375 -27.34375 98.234375 -27.34375 C 125.679688 -27.34375 139.40625 -46.945312 139.40625 -86.15625 Z M 139.40625 -86.15625 "/></g></g></g><g fill="#ef1f9f" fill-opacity="1"><g transform="translate(509.691633, 680.249986)"><g><path d="M 167.703125 -50.234375 C 167.703125 -33.597656 160.894531 -20.535156 147.28125 -11.046875 C 133.664062 -1.566406 114.828125 3.171875 90.765625 3.171875 C 67.128906 3.171875 49.03125 -0.5625 36.46875 -8.03125 C 23.914062 -15.5 15.578125 -27.128906 11.453125 -42.921875 L 50.703125 -48.796875 C 52.929688 -40.640625 56.773438 -34.863281 62.234375 -31.46875 C 67.691406 -28.082031 77.203125 -26.390625 90.765625 -26.390625 C 103.273438 -26.390625 112.390625 -27.976562 118.109375 -31.15625 C 123.835938 -34.332031 126.703125 -39.3125 126.703125 -46.09375 C 126.703125 -51.601562 124.394531 -55.972656 119.78125 -59.203125 C 115.164062 -62.441406 107.347656 -65.175781 96.328125 -67.40625 C 71.109375 -72.382812 54.097656 -77.019531 45.296875 -81.3125 C 36.503906 -85.601562 29.800781 -91.164062 25.1875 -98 C 20.582031 -104.832031 18.28125 -113.234375 18.28125 -123.203125 C 18.28125 -139.628906 24.613281 -152.425781 37.28125 -161.59375 C 49.945312 -170.757812 67.882812 -175.34375 91.09375 -175.34375 C 111.539062 -175.34375 127.988281 -171.367188 140.4375 -163.421875 C 152.894531 -155.472656 160.660156 -143.972656 163.734375 -128.921875 L 124.15625 -124.78125 C 122.882812 -131.78125 119.753906 -137 114.765625 -140.4375 C 109.785156 -143.882812 101.894531 -145.609375 91.09375 -145.609375 C 80.488281 -145.609375 72.535156 -144.253906 67.234375 -141.546875 C 61.941406 -138.847656 59.296875 -134.320312 59.296875 -127.96875 C 59.296875 -122.988281 61.332031 -119.039062 65.40625 -116.125 C 69.488281 -113.207031 76.351562 -110.796875 86 -108.890625 C 99.457031 -106.140625 111.40625 -103.304688 121.84375 -100.390625 C 132.28125 -97.472656 140.648438 -94 146.953125 -89.96875 C 153.265625 -85.945312 158.300781 -80.78125 162.0625 -74.46875 C 165.820312 -68.164062 167.703125 -60.085938 167.703125 -50.234375 Z M 167.703125 -50.234375 "/></g></g></g></svg>